<?xml version="1.0" encoding="UTF-8"?>
<svg id="Capa_1" xmlns="http://www.w3.org/2000/svg" version="1.1" viewBox="0 0 467.28 270">
  <!-- Generator: Adobe Illustrator 29.5.1, SVG Export Plug-In . SVG Version: 2.1.0 Build 141)  -->
  <defs>
    <style>
      .st0 {
        fill: #078884;
      }

      .st1 {
        fill: #c26718;
      }

      .st2 {
        fill: #098784;
      }
    </style>
  </defs>
  <path class="st2" d="M353.84,172.17c11.73-7.74,25.36-4.53,30.19,9.15,4.27,12.1.17,31.94-8.25,41.63-8.12,9.35-23.85,12.24-32.28,1.81-.44,1.58.33,3.52-1.18,4.72-3.66,2.92-13.13.85-15.69-3.09-1.61-2.49-.39-10.23.06-13.36,3.2-22.43,11.26-46.21,16.96-68.26.36-1.41.54-4.12,1.02-5.15,1.71-3.69,16.12-.02,16.71,3.8l-7.55,28.76ZM361,176.97c-3.91.61-7.29,4.22-9.16,7.52-3.21,5.67-6.68,20.59-5.94,26.98.81,6.98,7.95,11.74,13.57,6.04,6.24-6.33,10.8-28.58,8.13-36.8-1.1-3.38-3.1-4.29-6.6-3.74Z"/>
  <path class="st2" d="M237.17,204.92c3.03-2.51,7.91,3.88,8.44,6.77,1.9,10.28-12.01,19.22-21.06,19.96-49.06,4-32.03-64.15-11.79-86.13,8.9-9.67,21.17-11.24,32.96-5.38,13.49,6.7,12,27.27,6.17,38.71-3.87,7.59-17.72,2.42-17.61-3.16,1.95-7.03,5.15-14.89,5.68-22.19.94-12.88-6.67-7.49-11.39-1.23-9.3,12.34-19.97,42.91-17.58,58.13.62,3.92,2.61,9.53,7.11,10.29,7.42,1.26,11.75-2.59,15.25-8.51.88-1.48,2.89-6.5,3.8-7.26Z"/>
  <path class="st2" d="M353.78,76.36c.23-4.3,2.3-4.45,6.09-4.18,2.3.16,9.74,2.14,10.23,4.71.42,2.21-3.27,13.96-3.99,17.18-1.87,8.28-3.48,16.72-4.34,25.19-.25,2.47.01,9.14-1.09,10.72-2.89,4.15-16.79,1.15-16.45-5.34-8.34,12.51-26.77,8.95-30.83-5.28-3.3-11.58,1.86-31.54,10.33-40.22,7.47-7.65,21.71-10.66,30.05-2.77ZM342.92,80.26c-7.28,1.5-11.72,16.41-12.71,22.71-.71,4.51-2.22,20.29,5.89,18.39,6.95-1.62,11.85-19.7,13-25.89,1-5.36,3.09-17.11-6.18-15.21Z"/>
  <path class="st2" d="M433.25,172.89c.24-4.49,2.4-4.65,6.36-4.36,2.4.17,10.17,2.23,10.68,4.92.44,2.3-3.41,14.58-4.17,17.94-1.96,8.65-3.64,17.46-4.53,26.3-.26,2.58.01,9.54-1.14,11.19-3.02,4.34-17.53,1.2-17.18-5.58-8.71,13.06-27.95,9.35-32.2-5.52-3.45-12.09,1.95-32.93,10.79-42,7.8-7.99,22.67-11.13,31.37-2.89ZM421.92,176.97c-7.6,1.56-12.24,17.14-13.28,23.71-.74,4.7-2.32,21.18,6.15,19.2,7.25-1.7,12.38-20.57,13.58-27.04,1.04-5.6,3.22-17.87-6.45-15.88Z"/>
  <path class="st2" d="M283.97,118.74c4.82-.14,9.62-1.47,14.42-1.73,1.39-.08,4.56-.22,5.75.15,2.69.83,9.58,10.18,7.82,12.72-3.9.92-8.15.46-12.17.68-5.2.28-10.43.69-15.63,1.04-4.42.3-7.53,1.39-12.06-.1-6.78-2.23-6.09-6.53-5.44-12.54,2.32-21.38,10.55-45.87,16.18-66.82.6-2.24.97-5.4,1.65-7.38.91-2.69,7.12-1.43,9.22-.85,2.27.62,7.07,2.28,6.61,5.2-5.94,23.08-13.19,45.93-16.33,69.65Z"/>
  <path class="st2" d="M268.26,208.44c-.97,10.78,9.52,17.65,17.23,8.34,1.82-2.19,2.34-6.26,6.12-4.31,3.65,1.89,4.17,6.43,2.19,9.71-5.27,8.75-19.41,10.94-28.32,7.35-25.16-10.13-12.26-61.79,13.12-61.75,16.3.03,24.81,8.92,19.42,25.25-4.32,13.08-16.77,18.1-29.75,15.4ZM283.03,175.88c-5.46,1.08-13.87,18.05-14.06,23.33-.05,1.43.19,1.68,1.59,1.59,7.36-.49,12.63-7.01,14.76-13.56.93-2.87,2.87-12.38-2.28-11.36Z"/>
  <path class="st2" d="M301.38,227.53c-2.39-2.57-1.52-6.91-1.21-10.21,1.31-13.97,5.53-27.95,8.89-41.52.41-1.67.56-4.14.98-5.55.4-1.33,2.5-1.66,3.72-1.72,2.95-.16,12.98,1.99,13.08,5.63-4.52,17.66-9.03,35.43-9.5,53.8-2.38,5.07-12.9,2.86-15.95-.43Z"/>
  <circle class="st2" cx="321.48" cy="152.22" r="9.82"/>
  <path class="st0" d="M170.42,50.78l-9.11,34.3c.59.43,10.74-1.31,13.45-.42,2.99.98,7.43,8.55,5.46,11.18-.94,1.25-5.56.58-7.27.72s-13.72,1.59-14.28,2.04l-2.22,12.89,17.54-2.08c3.82-.73,6.66,1.96,8.79,4.74,1.08,1.41,5.33,8.16,1.96,8.79-4.97.02-9.97.07-14.92.36-6.94.4-19.97,2.9-25.97.61-4.32-1.65-5.28-4.03-5.11-8.43.23-5.97,1.99-13.42,3.23-19.34,3.59-17.16,8.76-34,13.34-50.91.39-1.43,1.41-7.18,1.81-7.83.25-.4,1.47-.78,1.97-.89,4.13-.96,10.23-.56,14.57-.71s13.51-1.18,17.55-.21c3.2.77,9.2,9.27,8.24,12.46-.16.53-.61.86-1.16.93-9.31.17-18.7.31-27.87,1.82Z"/>
  <path class="st0" d="M200.3,66.07c2.14-2.32,13.83.39,15.5,3.25.77,1.31-.09,2.21.04,3.61,3.69-3.08,7.62-6.37,12.43-7.54,7.26-1.76,17.05-.09,18.09,8.79.95,8.17-4.19,22.96-5.47,31.96-.44,3.07-.79,6.24-1.09,9.33-.41,4.26,1.2,8.69-4.68,9.21-3.97.35-10.21-.6-12.06-4.64-.89-1.96-.47-4.15-.29-6.31.62-7.12,2.42-14.4,3.99-21.37.84-3.71,4.02-13.04,3.62-16.11-.73-5.59-7.35-1.03-9.53,1.18-8.28,8.37-12.16,24.92-13.36,36.3-.22,2.12,0,7.81-.88,9.19-2.63,4.1-15.59,1.58-16.46-4-.14-.9-.05-2.15-.02-3.1.15-4.29,1.11-9.51,1.84-13.79,2.07-12.15,5.75-23.94,8.32-35.97Z"/>
  <path class="st2" d="M153.5,232.95c.02.12.04.23.07.34l40.33-63.66-30.99-17.05-33.93,2.48-19.59,30.64c1.17.23,2.34.49,3.47.79l-1.02,3.87c-1.48-.39-3.01-.72-4.55-.99l.09-.51-22.7,35.51.36.24,35.78-2.6,28.99,12.85c-.06-.31-.12-.67-.21-1.09l3.92-.8ZM120.55,193.53c-1.38-.66-2.82-1.26-4.28-1.79l1.37-3.76c1.58.57,3.13,1.23,4.63,1.94l-1.72,3.61ZM128.46,198.33c-1.23-.93-2.52-1.8-3.84-2.6l2.07-3.42c1.43.86,2.83,1.81,4.17,2.82l-2.41,3.2ZM132.03,201.3l2.71-2.95c1.22,1.12,2.41,2.32,3.53,3.57l-2.97,2.68c-1.04-1.16-2.15-2.27-3.27-3.3ZM138.26,208.2l3.2-2.4c.99,1.31,1.94,2.7,2.84,4.12l-3.38,2.13c-.84-1.33-1.73-2.62-2.65-3.85ZM143.25,216.11l3.54-1.87c.76,1.45,1.49,2.96,2.16,4.49l-3.66,1.61c-.63-1.44-1.32-2.87-2.04-4.23ZM147.03,224.71l3.77-1.35c.56,1.56,1.07,3.15,1.52,4.74l-3.85,1.09c-.43-1.5-.91-3.01-1.44-4.48Z"/>
  <path class="st2" d="M95.34,138l-30.58,4.43-47.81,65.9,37.48-3.8,27.73,18.18,43.63-68.24-30.45-16.47ZM36.56,206.01l-1.81-3.57c.75-.38,1.5-.76,2.25-1.13l1.78,3.58c-.73.37-1.47.74-2.22,1.12ZM43.16,202.77l-1.71-3.62c1.5-.71,2.98-1.39,4.44-2.04l1.63,3.65c-1.43.64-2.89,1.3-4.36,2ZM51.91,198.87l-1.54-3.69c1.53-.64,3.05-1.25,4.54-1.83l1.45,3.73c-1.46.56-2.94,1.16-4.44,1.79ZM60.84,195.42l-1.34-3.77c1.56-.55,3.12-1.08,4.64-1.57l1.22,3.81c-1.49.48-3.01.99-4.53,1.53ZM69.93,192.51l-1.09-3.85c1.6-.45,3.2-.88,4.75-1.25l.95,3.89c-1.5.37-3.05.77-4.6,1.21ZM79.17,190.26l-.78-3.92c1.64-.33,3.27-.61,4.85-.85l.6,3.96c-1.52.23-3.09.51-4.68.82ZM88.54,188.85l-.4-3.98c1.66-.17,3.33-.28,4.94-.35l.17,4c-1.54.06-3.12.18-4.71.33ZM97.96,188.47l.09-4c1.68.04,3.35.13,4.97.29l-.37,3.98c-1.52-.14-3.09-.23-4.68-.27Z"/>
  <path class="st1" d="M89.41,45.18l3.11.26c21.43,2.42,38.27,19.97,39.92,41.48,1.78,23.3-16.72,49.33-31.56,65.89-3.34,3.73-7.42,8.25-11.22,11.46-.55.46-1.02.82-1.72,1.04h-.98c-.69-.22-1.17-.58-1.72-1.04-2.25-1.9-4.69-4.47-6.74-6.62-15.37-16.03-34.55-41.49-36.04-64.35-1.63-24.98,17.67-46.97,42.74-47.99l.3-.13h3.92ZM110.8,90.23c0-12.9-10.46-23.35-23.35-23.35s-23.35,10.46-23.35,23.35,10.46,23.35,23.35,23.35,23.35-10.46,23.35-23.35Z"/>
</svg>